<svg width="236" height="68" viewBox="0 0 236 68" fill="none" xmlns="http://www.w3.org/2000/svg">
<rect x="1.16256" y="1.59127" width="233.675" height="65.1035" rx="32.5517" stroke="#FEFEFE" stroke-width="2.32512"/>
<path d="M35.2411 42.6431V30.8779L30.3816 39.8064H28.847L23.9642 30.8779V42.6431H21.3601V26.1347H24.1502L29.6143 36.2257L35.0783 26.1347H37.8685V42.6431H35.2411ZM53.1473 40.3412V42.6431H41.8239V26.1347H52.938V28.4366H44.4281V33.1333H51.7987V35.2957H44.4281V40.3412H53.1473ZM69.9472 42.6431V30.8779L65.0877 39.8064H63.5531L58.6703 30.8779V42.6431H56.0662V26.1347H58.8564L64.3204 36.2257L69.7844 26.1347H72.5746V42.6431H69.9472ZM89.5042 38.3881C89.5042 39.2716 89.2717 40.0312 88.8067 40.6667C88.3572 41.3022 87.7449 41.7905 86.9698 42.1315C86.1948 42.4726 85.3422 42.6431 84.4122 42.6431H76.53V26.1347H85.04C85.815 26.1347 86.4816 26.3439 87.0396 26.7625C87.6131 27.1655 88.0471 27.6925 88.3416 28.3436C88.6517 28.9791 88.8067 29.6456 88.8067 30.3432C88.8067 31.1492 88.5974 31.9087 88.1789 32.6218C87.7759 33.3193 87.1946 33.8386 86.435 34.1796C87.3806 34.4586 88.1246 34.9702 88.6672 35.7142C89.2252 36.4427 89.5042 37.334 89.5042 38.3881ZM86.8303 37.8998C86.8303 37.4348 86.7296 37.0163 86.5281 36.6442C86.342 36.2567 86.0785 35.9467 85.7375 35.7142C85.412 35.4662 85.0245 35.3422 84.5749 35.3422H79.1342V40.3877H84.4122C84.8772 40.3877 85.288 40.2792 85.6445 40.0622C86.0165 39.8297 86.3033 39.5274 86.5048 39.1554C86.7218 38.7679 86.8303 38.3493 86.8303 37.8998ZM79.1342 28.3901V33.2496H83.9239C84.3579 33.2496 84.7455 33.1488 85.0865 32.9473C85.4275 32.7303 85.6988 32.4435 85.9003 32.087C86.1018 31.715 86.2025 31.2965 86.2025 30.8314C86.2025 30.3509 86.1095 29.9324 85.9235 29.5759C85.7375 29.2039 85.4817 28.9171 85.1562 28.7156C84.8462 28.4986 84.4819 28.3901 84.0634 28.3901H79.1342ZM103.776 40.3412V42.6431H92.4526V26.1347H103.567V28.4366H95.0567V33.1333H102.427V35.2957H95.0567V40.3412H103.776ZM106.695 42.6431V26.1347H113.88C114.624 26.1347 115.306 26.2897 115.926 26.5997C116.546 26.9097 117.08 27.3205 117.53 27.832C117.995 28.3436 118.351 28.9171 118.6 29.5526C118.863 30.1882 118.995 30.8392 118.995 31.5057C118.995 32.2343 118.863 32.9318 118.6 33.5983C118.336 34.2649 117.956 34.8384 117.46 35.3189C116.98 35.7995 116.414 36.1482 115.763 36.3652L119.646 42.6431H116.716L113.135 36.9H109.299V42.6431H106.695ZM109.299 34.5981H113.856C114.337 34.5981 114.763 34.4586 115.135 34.1796C115.507 33.9006 115.802 33.5286 116.019 33.0636C116.236 32.583 116.344 32.0638 116.344 31.5057C116.344 30.9322 116.22 30.4207 115.972 29.9711C115.724 29.5061 115.399 29.1341 114.996 28.8551C114.608 28.5761 114.182 28.4366 113.717 28.4366H109.299V34.5981ZM132.317 26.1347H134.781L141.199 42.6431H138.455L136.711 38.1556H130.34L128.62 42.6431H125.853L132.317 26.1347ZM136.2 36.2257L133.549 28.9946L130.805 36.2257H136.2ZM141.791 34.2726C141.791 33.2651 141.969 32.2808 142.325 31.3197C142.682 30.3432 143.201 29.4596 143.883 28.6691C144.581 27.863 145.426 27.2275 146.418 26.7625C147.41 26.2819 148.533 26.0417 149.789 26.0417C151.277 26.0417 152.564 26.3827 153.649 27.0647C154.734 27.7313 155.54 28.5916 156.067 29.6456L154.021 31.0174C153.711 30.3509 153.315 29.8239 152.835 29.4364C152.37 29.0488 151.858 28.7776 151.3 28.6226C150.758 28.4676 150.223 28.3901 149.696 28.3901C148.828 28.3901 148.068 28.5683 147.417 28.9248C146.766 29.2659 146.216 29.7231 145.767 30.2967C145.333 30.8702 144.999 31.5135 144.767 32.2265C144.55 32.9395 144.441 33.6526 144.441 34.3656C144.441 35.1562 144.573 35.9235 144.837 36.6675C145.1 37.396 145.464 38.0471 145.929 38.6206C146.41 39.1786 146.976 39.6204 147.627 39.9459C148.278 40.2714 148.991 40.4342 149.766 40.4342C150.293 40.4342 150.843 40.3412 151.417 40.1552C151.99 39.9692 152.517 39.6824 152.998 39.2949C153.494 38.8919 153.881 38.3648 154.16 37.7138L156.323 38.9461C155.982 39.7677 155.447 40.4652 154.718 41.0387C154.005 41.6123 153.199 42.0463 152.3 42.3408C151.417 42.6353 150.541 42.7826 149.673 42.7826C148.51 42.7826 147.448 42.5423 146.487 42.0618C145.526 41.5658 144.697 40.9147 143.999 40.1087C143.302 39.2871 142.759 38.3726 142.372 37.365C141.984 36.342 141.791 35.3112 141.791 34.2726ZM157.713 34.2726C157.713 33.2651 157.891 32.2808 158.248 31.3197C158.604 30.3432 159.124 29.4596 159.806 28.6691C160.503 27.863 161.348 27.2275 162.34 26.7625C163.332 26.2819 164.456 26.0417 165.712 26.0417C167.2 26.0417 168.486 26.3827 169.571 27.0647C170.656 27.7313 171.462 28.5916 171.989 29.6456L169.943 31.0174C169.633 30.3509 169.238 29.8239 168.758 29.4364C168.292 29.0488 167.781 28.7776 167.223 28.6226C166.68 28.4676 166.146 28.3901 165.619 28.3901C164.751 28.3901 163.991 28.5683 163.34 28.9248C162.689 29.2659 162.139 29.7231 161.689 30.2967C161.255 30.8702 160.922 31.5135 160.689 32.2265C160.472 32.9395 160.364 33.6526 160.364 34.3656C160.364 35.1562 160.496 35.9235 160.759 36.6675C161.023 37.396 161.387 38.0471 161.852 38.6206C162.332 39.1786 162.898 39.6204 163.549 39.9459C164.2 40.2714 164.913 40.4342 165.688 40.4342C166.215 40.4342 166.766 40.3412 167.339 40.1552C167.913 39.9692 168.44 39.6824 168.92 39.2949C169.416 38.8919 169.804 38.3648 170.083 37.7138L172.245 38.9461C171.904 39.7677 171.369 40.4652 170.641 41.0387C169.928 41.6123 169.122 42.0463 168.223 42.3408C167.339 42.6353 166.463 42.7826 165.595 42.7826C164.433 42.7826 163.371 42.5423 162.41 42.0618C161.449 41.5658 160.62 40.9147 159.922 40.1087C159.225 39.2871 158.682 38.3726 158.294 37.365C157.907 36.342 157.713 35.3112 157.713 34.2726ZM186.21 40.3412V42.6431H174.886V26.1347H186V28.4366H177.491V33.1333H184.861V35.2957H177.491V40.3412H186.21ZM198.894 30.0176C198.739 29.8471 198.514 29.6689 198.22 29.4829C197.925 29.2814 197.577 29.0953 197.174 28.9248C196.771 28.7543 196.337 28.6148 195.872 28.5063C195.407 28.3978 194.926 28.3436 194.43 28.3436C193.345 28.3436 192.539 28.5451 192.012 28.9481C191.485 29.3511 191.221 29.9091 191.221 30.6222C191.221 31.1492 191.369 31.5677 191.663 31.8777C191.958 32.1723 192.407 32.4203 193.012 32.6218C193.616 32.8233 194.376 33.0403 195.29 33.2728C196.406 33.5363 197.375 33.8541 198.197 34.2261C199.018 34.5826 199.646 35.0632 200.08 35.6677C200.514 36.2722 200.731 37.0705 200.731 38.0626C200.731 38.8996 200.576 39.6204 200.266 40.2249C199.956 40.8295 199.522 41.3255 198.964 41.713C198.406 42.085 197.763 42.3641 197.034 42.5501C196.306 42.7206 195.523 42.8058 194.686 42.8058C193.864 42.8058 193.043 42.7206 192.221 42.5501C191.415 42.3796 190.64 42.1315 189.896 41.806C189.167 41.465 188.493 41.0542 187.873 40.5737L189.059 38.3416C189.26 38.5431 189.547 38.7679 189.919 39.0159C190.307 39.2484 190.749 39.4731 191.245 39.6902C191.756 39.9072 192.306 40.0932 192.895 40.2482C193.5 40.3877 194.112 40.4574 194.732 40.4574C195.771 40.4574 196.561 40.2792 197.104 39.9227C197.662 39.5507 197.941 39.0236 197.941 38.3416C197.941 37.7836 197.763 37.3418 197.406 37.0163C197.05 36.6752 196.53 36.3885 195.848 36.156C195.166 35.9235 194.352 35.6909 193.407 35.4584C192.322 35.1639 191.415 34.8462 190.687 34.5051C189.958 34.1486 189.408 33.6991 189.036 33.1566C188.679 32.5985 188.501 31.8932 188.501 31.0407C188.501 29.9556 188.764 29.0411 189.291 28.2971C189.818 27.5375 190.532 26.9717 191.431 26.5997C192.345 26.2122 193.368 26.0184 194.5 26.0184C195.244 26.0184 195.949 26.1037 196.616 26.2742C197.282 26.4292 197.902 26.6462 198.476 26.9252C199.065 27.2042 199.599 27.522 200.08 27.8785L198.894 30.0176ZM213.341 30.0176C213.186 29.8471 212.961 29.6689 212.667 29.4829C212.372 29.2814 212.023 29.0953 211.62 28.9248C211.217 28.7543 210.783 28.6148 210.318 28.5063C209.853 28.3978 209.373 28.3436 208.877 28.3436C207.792 28.3436 206.986 28.5451 206.458 28.9481C205.931 29.3511 205.668 29.9091 205.668 30.6222C205.668 31.1492 205.815 31.5677 206.11 31.8777C206.404 32.1723 206.854 32.4203 207.458 32.6218C208.063 32.8233 208.822 33.0403 209.737 33.2728C210.853 33.5363 211.822 33.8541 212.643 34.2261C213.465 34.5826 214.093 35.0632 214.527 35.6677C214.961 36.2722 215.178 37.0705 215.178 38.0626C215.178 38.8996 215.023 39.6204 214.713 40.2249C214.403 40.8295 213.969 41.3255 213.411 41.713C212.853 42.085 212.209 42.3641 211.481 42.5501C210.752 42.7206 209.969 42.8058 209.132 42.8058C208.311 42.8058 207.489 42.7206 206.668 42.5501C205.862 42.3796 205.087 42.1315 204.343 41.806C203.614 41.465 202.94 41.0542 202.32 40.5737L203.506 38.3416C203.707 38.5431 203.994 38.7679 204.366 39.0159C204.753 39.2484 205.195 39.4731 205.691 39.6902C206.203 39.9072 206.753 40.0932 207.342 40.2482C207.947 40.3877 208.559 40.4574 209.179 40.4574C210.217 40.4574 211.008 40.2792 211.55 39.9227C212.109 39.5507 212.388 39.0236 212.388 38.3416C212.388 37.7836 212.209 37.3418 211.853 37.0163C211.496 36.6752 210.977 36.3885 210.295 36.156C209.613 35.9235 208.799 35.6909 207.854 35.4584C206.768 35.1639 205.862 34.8462 205.133 34.5051C204.405 34.1486 203.854 33.6991 203.482 33.1566C203.126 32.5985 202.948 31.8932 202.948 31.0407C202.948 29.9556 203.211 29.0411 203.738 28.2971C204.265 27.5375 204.978 26.9717 205.877 26.5997C206.792 26.2122 207.815 26.0184 208.946 26.0184C209.69 26.0184 210.396 26.1037 211.062 26.2742C211.729 26.4292 212.349 26.6462 212.922 26.9252C213.511 27.2042 214.046 27.522 214.527 27.8785L213.341 30.0176Z" fill="#FEFEFE"/>
</svg>
