<svg width="187" height="68" viewBox="0 0 187 68" fill="none" xmlns="http://www.w3.org/2000/svg">
<rect x="0.576172" width="186.01" height="67.4286" rx="33.7143" fill="#FEFEFE"/>
<path d="M34.4153 37.9594C34.4153 38.8429 34.1828 39.6025 33.7178 40.238C33.2683 40.8735 32.656 41.3618 31.881 41.7028C31.1059 42.0438 30.2534 42.2144 29.3233 42.2144H21.4412V25.706H29.9511C30.7261 25.706 31.3927 25.9152 31.9507 26.3338C32.5242 26.7368 32.9583 27.2638 33.2528 27.9148C33.5628 28.5504 33.7178 29.2169 33.7178 29.9144C33.7178 30.7205 33.5085 31.48 33.09 32.1931C32.687 32.8906 32.1057 33.4099 31.3462 33.7509C32.2917 34.0299 33.0358 34.5414 33.5783 35.2855C34.1363 36.014 34.4153 36.9053 34.4153 37.9594ZM31.7415 37.4711C31.7415 37.0061 31.6407 36.5876 31.4392 36.2155C31.2532 35.828 30.9897 35.518 30.6486 35.2855C30.3231 35.0375 29.9356 34.9135 29.4861 34.9135H24.0453V39.959H29.3233C29.7883 39.959 30.1991 39.8505 30.5556 39.6335C30.9277 39.401 31.2144 39.0987 31.4159 38.7267C31.6329 38.3391 31.7415 37.9206 31.7415 37.4711ZM24.0453 27.9613V32.8209H28.835C29.2691 32.8209 29.6566 32.7201 29.9976 32.5186C30.3386 32.3016 30.6099 32.0148 30.8114 31.6583C31.0129 31.2863 31.1137 30.8678 31.1137 30.4027C31.1137 29.9222 31.0207 29.5037 30.8347 29.1472C30.6486 28.7751 30.3929 28.4884 30.0674 28.2869C29.7573 28.0699 29.3931 27.9613 28.9746 27.9613H24.0453ZM44.2228 42.3306C43.0293 42.3306 41.952 42.0981 40.9909 41.6331C40.0299 41.168 39.2006 40.5403 38.503 39.7497C37.8055 38.9437 37.263 38.0446 36.8754 37.0526C36.5034 36.045 36.3174 35.0142 36.3174 33.9602C36.3174 32.8596 36.5189 31.8133 36.9219 30.8212C37.325 29.8137 37.883 28.9224 38.596 28.1474C39.3091 27.3568 40.1461 26.7368 41.1072 26.2873C42.0837 25.8222 43.1378 25.5897 44.2693 25.5897C45.4474 25.5897 46.5169 25.83 47.478 26.3105C48.4546 26.791 49.2838 27.4343 49.9659 28.2404C50.6634 29.0464 51.1982 29.9455 51.5702 30.9375C51.9577 31.9296 52.1515 32.9449 52.1515 33.9834C52.1515 35.084 51.95 36.138 51.547 37.1456C51.1594 38.1376 50.6092 39.0289 49.8961 39.8195C49.1831 40.5945 48.3383 41.2068 47.3617 41.6563C46.4007 42.1058 45.3544 42.3306 44.2228 42.3306ZM38.968 33.9602C38.968 34.7352 39.0921 35.487 39.3401 36.2155C39.5881 36.9441 39.9368 37.5951 40.3864 38.1686C40.8514 38.7267 41.4094 39.1684 42.0605 39.494C42.7115 39.8195 43.44 39.9822 44.2461 39.9822C45.0831 39.9822 45.8272 39.8117 46.4782 39.4707C47.1292 39.1297 47.6718 38.6724 48.1058 38.0989C48.5553 37.5099 48.8963 36.8588 49.1288 36.1458C49.3613 35.4172 49.4776 34.6887 49.4776 33.9602C49.4776 33.1851 49.3536 32.4411 49.1056 31.728C48.8731 30.9995 48.5243 30.3562 48.0593 29.7982C47.5943 29.2247 47.0362 28.7751 46.3852 28.4496C45.7497 28.1241 45.0366 27.9613 44.2461 27.9613C43.409 27.9613 42.665 28.1319 42.014 28.4729C41.3629 28.8139 40.8126 29.2712 40.3631 29.8447C39.9136 30.4182 39.5648 31.0615 39.3168 31.7745C39.0843 32.4876 38.968 33.2161 38.968 33.9602ZM61.9392 42.3306C60.7456 42.3306 59.6683 42.0981 58.7073 41.6331C57.7462 41.168 56.9169 40.5403 56.2194 39.7497C55.5218 38.9437 54.9793 38.0446 54.5918 37.0526C54.2198 36.045 54.0338 35.0142 54.0338 33.9602C54.0338 32.8596 54.2353 31.8133 54.6383 30.8212C55.0413 29.8137 55.5993 28.9224 56.3124 28.1474C57.0254 27.3568 57.8625 26.7368 58.8235 26.2873C59.8001 25.8222 60.8541 25.5897 61.9857 25.5897C63.1637 25.5897 64.2333 25.83 65.1944 26.3105C66.1709 26.791 67.0002 27.4343 67.6822 28.2404C68.3798 29.0464 68.9145 29.9455 69.2866 30.9375C69.6741 31.9296 69.8678 32.9449 69.8678 33.9834C69.8678 35.084 69.6663 36.138 69.2633 37.1456C68.8758 38.1376 68.3255 39.0289 67.6125 39.8195C66.8994 40.5945 66.0546 41.2068 65.0781 41.6563C64.117 42.1058 63.0707 42.3306 61.9392 42.3306ZM56.6844 33.9602C56.6844 34.7352 56.8084 35.487 57.0564 36.2155C57.3044 36.9441 57.6532 37.5951 58.1027 38.1686C58.5677 38.7267 59.1258 39.1684 59.7768 39.494C60.4278 39.8195 61.1564 39.9822 61.9624 39.9822C62.7995 39.9822 63.5435 39.8117 64.1945 39.4707C64.8456 39.1297 65.3881 38.6724 65.8221 38.0989C66.2717 37.5099 66.6127 36.8588 66.8452 36.1458C67.0777 35.4172 67.194 34.6887 67.194 33.9602C67.194 33.1851 67.07 32.4411 66.8219 31.728C66.5894 30.9995 66.2407 30.3562 65.7756 29.7982C65.3106 29.2247 64.7526 28.7751 64.1015 28.4496C63.466 28.1241 62.753 27.9613 61.9624 27.9613C61.1254 27.9613 60.3813 28.1319 59.7303 28.4729C59.0793 28.8139 58.529 29.2712 58.0795 29.8447C57.6299 30.4182 57.2812 31.0615 57.0332 31.7745C56.8007 32.4876 56.6844 33.2161 56.6844 33.9602ZM72.7964 42.2144V25.7292H75.4006V34.2159L83.1665 25.706H86.0496L79.5393 33.0069L86.4216 42.2144H83.4687L77.8884 34.6577L75.4006 37.2386V42.2144H72.7964ZM98.123 25.706H100.588L107.005 42.2144H104.261L102.517 37.7269H96.1467L94.4261 42.2144H91.6592L98.123 25.706ZM102.006 35.797L99.3553 28.5659L96.6117 35.797H102.006ZM125.94 28.0078H120.452V42.2144H117.825V28.0078H112.314V25.706H125.94V28.0078ZM128.386 42.2144V25.706H130.99V42.2144H128.386ZM148.835 42.2144V30.4492L143.975 39.3777H142.44L137.558 30.4492V42.2144H134.954V25.706H137.744L143.208 35.797L148.672 25.706H151.462V42.2144H148.835ZM166.741 39.9125V42.2144H155.417V25.706H166.531V28.0078H158.021V32.7046H165.392V34.867H158.021V39.9125H166.741Z" fill="#100F0F"/>
</svg>
